PathFileType	4	(X/Y/Z)	../Python\walking\Walking03\task.trc
DataRate	CameraRate	NumFrames	NumMarkers	Units	OrigDataRate	OrigDataStartFrame	OrigNumFrames
200.000000	200.000000	6	30	mm	200.000000	251	671
Frame#	Time	CLAV			STRN			RASI			LASI			RTH1			RTH2			RTH3			RTB1			RTB2			RTB3			RD5M			RTOE			LTH1			LTH2			LTB1			LTB2			LTB3			LTOE			LD5M			LTH3			RHEE			RPSI			T10			PE03			PE02			PE01			C7			LPSI			LHEE			RBAK			
		X1	Y1	Z1	X2	Y2	Z2	X3	Y3	Z3	X4	Y4	Z4	X5	Y5	Z5	X6	Y6	Z6	X7	Y7	Z7	X8	Y8	Z8	X9	Y9	Z9	X10	Y10	Z10	X11	Y11	Z11	X12	Y12	Z12	X13	Y13	Z13	X14	Y14	Z14	X15	Y15	Z15	X16	Y16	Z16	X17	Y17	Z17	X18	Y18	Z18	X19	Y19	Z19	X20	Y20	Z20	X21	Y21	Z21	X22	Y22	Z22	X23	Y23	Z23	X24	Y24	Z24	X25	Y25	Z25	X26	Y26	Z26	X27	Y27	Z27	X28	Y28	Z28	X29	Y29	Z29	X30	Y30	Z30	

252	1.255	327.0370178222657	1432.210693359375	228.0356597900392	374.8316040039064	1240.480346679688	241.7677612304689	343.3379211425782	1030.984985351563	372.9064331054689	363.7371520996095	1027.15234375	100.2470245361329	392.9723205566409	790.2324218750005	422.4306640625002	354.8105773925782	743.4329223632815	407.3347778320315	394.9247131347659	713.9321289062502	400.6166076660159	485.4505615234377	402.3003540039065	366.9951782226564	436.0285644531252	365.6488342285157	371.2648315429689	464.9551391601565	325.7313842773439	362.0910949707032	481.8797302246096	33.63100814819337	373.0731201171876	535.7626953125002	50.03579330444339	339.7720031738282	252.9317626953126	722.4968872070315	75.48328399658206	219.237030029297	687.6580810546877	88.3350524902344	179.1517486572266	361.7434997558595	131.3600769042969	144.9333190917969	327.8034973144532	145.1251678466797	190.6070556640626	285.3695373535157	146.5920715332032	303.0144348144532	30.2113494873047	222.3441162109376	255.0379943847657	18.03201484680176	172.8301696777344	265.0799865722657	647.327575683594	97.42651367187506	330.9300537109376	66.39972686767581	289.057830810547	185.7530059814454	1071.490966796875	288.2258300781251	151.9426574707032	1270.05615234375	209.8190917968751	178.5892181396485	1059.417846679688	213.7972106933595	180.6765594482422	1059.04541015625	265.010223388672	192.1342773437501	1119.305541992188	238.9454193115236	216.9297027587892	1526.0966796875	205.9808044433595	185.3379516601563	1074.356079101563	188.2877197265626	87.84941864013675	45.5279998779297	235.6789855957032	178.8709869384766	1443.84375	375.0316772460939	
253	1.26	333.7551269531251	1431.41015625	227.914276123047	381.2652282714845	1239.566162109375	241.5682067871095	350.0398559570314	1030.558715820313	372.9073486328126	369.461151123047	1026.135620117188	100.0793228149415	400.1524963378909	789.894165039063	422.5660400390627	361.9825439453126	743.0480957031252	407.6700744628909	402.1414184570315	713.622497558594	400.733093261719	496.6335144042971	401.6811218261721	366.8883361816407	448.4223327636721	363.4903564453126	371.1159057617189	478.5870361328127	324.5397949218751	362.0436401367189	505.534851074219	32.72999572753908	372.237762451172	558.6123657226565	50.89920043945315	338.6244506835939	257.0083312988282	721.8780517578127	75.78119659423831	223.1019287109376	687.2681274414065	88.75009918212893	180.8320312500001	361.735809326172	132.2018280029297	146.4814147949219	327.9895324707032	146.0548706054688	191.8940734863282	285.2841186523439	147.4309539794922	303.0413513183595	30.19226074218751	222.4776458740236	254.7409820556642	18.257719039917	173.3017272949219	268.7061462402345	646.6770629882815	97.90405273437506	353.0499267578126	61.03676986694339	289.4223937988282	192.0928497314454	1070.698486328125	288.6036682128907	158.3163452148438	1269.52734375	209.7160644531251	184.6793975830079	1058.556518554688	214.2351074218751	186.9717254638672	1058.24365234375	265.4572143554689	198.3177185058595	1118.471801757813	239.2634429931642	223.7228546142579	1525.416625976563	205.8864746093751	191.3321685791016	1073.502319335938	188.6949768066407	87.94306945800784	45.91350555419923	236.9478759765626	185.5915832519532	1443.261474609375	374.8579101562501	
254	1.265	340.4773254394532	1430.564208984375	227.8000793457032	387.7021179199221	1238.60498046875	241.3805694580079	356.7787475585939	1030.066528320313	372.935760498047	375.202850341797	1025.100830078125	99.91580200195318	407.1911315917971	789.380981445313	422.679382324219	368.992156982422	742.516540527344	407.9590148925784	409.1735534667971	713.1314086914065	400.8278808593752	507.6146545410159	401.037048339844	366.7905273437501	460.6549072265627	361.3536682128907	370.9638977050782	492.0272521972659	323.4004821777345	362.001434326172	529.006286621094	32.14255905151369	371.3175354003907	581.2009887695315	52.03852462768558	337.3646850585939	261.1380615234376	721.2518310546877	76.07798767089847	227.0220642089845	686.8754882812502	89.17724609375003	182.5581512451172	361.7429809570314	133.0227661132813	148.0753936767579	328.1925354003907	146.9666900634766	193.2183685302736	285.2104492187501	148.2487487792969	303.0523071289064	30.17535972595216	222.6107940673829	254.4335021972657	18.48188591003419	173.7772064208985	272.3878784179689	646.0190429687502	98.37017059326178	375.0916748046876	56.03367996215823	289.8109130859376	198.4579467773439	1069.846313476563	288.9937744140626	164.6898803710938	1268.95068359375	209.6318511962892	190.7921905517579	1057.644653320313	214.6867980957032	193.2936096191407	1057.38671875	265.9163818359376	204.5209808349611	1117.586059570313	239.6005401611329	230.5192260742189	1524.692138671875	205.8024139404298	197.3424377441407	1072.598999023438	189.1182556152344	88.03248596191409	46.33003234863283	238.1811828613282	192.3181762695314	1442.630493164063	374.6992492675782	
255	1.27	347.2038574218751	1429.675903320313	227.6934509277345	394.1441955566409	1237.600463867188	241.2047119140626	363.5585937500001	1029.509033203125	372.9896545410157	380.9644775390626	1024.052978515625	99.75421142578131	414.0895690917971	788.694702148438	422.7712097167971	375.8402404785157	741.8389892578127	408.205749511719	416.0207519531252	712.4582519531252	400.9080200195315	518.3989868164065	400.3719787597659	366.697723388672	472.7290039062502	359.245819091797	370.8147583007814	505.2727966308596	322.318084716797	361.9595336914064	552.2541503906252	31.87810134887697	370.318084716797	603.4942016601565	53.45906829833987	336.0053100585939	265.3189392089845	720.6262207031252	76.37227630615237	230.9969329833986	686.4881591796877	89.61746978759768	184.3289794921876	361.7711181640626	133.8133392333985	149.7146606445313	328.4186401367189	147.8531036376954	194.5793914794923	285.1543273925782	149.0347595214844	303.050506591797	30.16010856628419	222.7396697998048	254.1206970214845	18.70086288452149	174.2487182617188	276.1245117187501	645.3598632812502	98.81632232666021	397.0201721191409	51.4045333862305	290.2112731933595	204.8521118164064	1068.938232421875	289.3999938964845	171.0653076171876	1268.328125	209.5676116943361	196.9310607910157	1056.68603515625	215.1558685302736	199.6453552246095	1056.478393554688	266.3911437988282	210.7478027343751	1116.652221679688	239.9602813720704	237.3185272216798	1523.92578125	205.7294311523439	203.3714752197267	1071.649536132813	189.5613555908204	88.11962890625003	46.78330230712892	239.3664550781251	199.0509490966798	1441.952880859375	374.556365966797	
256	1.275	353.9349060058595	1428.748901367188	227.5948333740236	400.5937194824221	1236.556396484375	241.0405731201173	370.383026123047	1028.886840820313	373.0670166015626	386.7485046386721	1022.996704101563	99.59260559082037	420.8505554199221	787.8391723632817	422.8427429199221	382.5287475585939	741.018493652344	408.4151916503909	422.6839904785159	711.6048583984377	400.9809570312502	528.991638183594	399.6903076171877	366.6062622070314	484.6470947265627	357.174041748047	370.6739807128907	518.3208618164065	321.2972412109376	361.9131469726564	575.2373046875002	31.94359016418458	369.2467041015626	625.457946777344	55.16388320922854	334.5615234375001	269.5483398437501	720.0089111328127	76.66267395019534	235.0253906250001	686.1135864257815	90.07106018066409	186.1437683105469	361.8258666992189	134.5645904541016	151.3989868164063	328.6736450195314	148.7068634033204	195.9769439697267	285.1212158203126	149.7787780761719	303.0392456054689	30.14603424072267	222.8607177734376	253.8079071044923	18.91126441955567	174.708480834961	279.9146728515626	644.7056274414065	99.23468017578131	418.7997741699221	47.15980529785158	290.6096801757814	211.2791900634767	1067.978637695313	289.825897216797	177.4449005126954	1267.661376953125	209.5246124267579	203.0996398925782	1055.684936523438	215.6456298828126	206.0301055908204	1055.523071289063	266.8846435546876	217.0019531250001	1115.674438476563	240.3460998535157	244.1204681396486	1523.120483398438	205.6684112548829	209.4222564697267	1070.657836914063	190.0277252197266	88.20660400390628	47.27906417846681	240.4914703369142	205.790252685547	1441.230590820313	374.4299926757814	
257	1.28	360.6709289550782	1427.786499023438	227.5046234130861	407.0530090332034	1235.476684570313	240.8879852294923	377.2552185058595	1028.201171875	373.1658020019532	392.5575256347659	1021.936828613282	99.42941284179693	427.4780578613284	786.820190429688	422.8959655761721	389.0610961914065	740.0601196289065	408.5928039550784	429.1657714843752	710.5758056640627	401.0541076660159	539.397399902344	398.997009277344	366.5128479003907	496.4109497070315	355.1458435058595	370.5464477539064	531.1683349609377	320.3424377441407	361.8578491210939	597.9136352539065	32.34296798706056	368.1123046875001	647.0583496093752	57.15324783325198	333.0505981445314	273.8228759765626	719.4073486328127	76.94759368896487	239.1055755615236	685.7584228515627	90.53751373291018	188.0026092529297	361.9124450683595	135.2684631347657	153.1286773681641	328.9628295898439	149.520980834961	197.4113922119142	285.1162414550782	150.4715881347657	303.0215454101564	30.13272666931154	222.9708709716798	253.5004119873048	19.11010169982911	175.1492462158204	283.7563781738282	644.0626220703127	99.61820220947271	440.3941345214846	43.30611419677736	290.9911499023439	217.7429809570314	1066.972534179688	290.2747802734376	183.8311157226563	1266.952270507813	209.5041503906251	209.3016662597657	1054.646240234375	216.1589965820314	212.4510040283204	1054.525390625	267.399627685547	223.2872619628907	1114.657470703125	240.7610473632814	250.9248046875001	1522.279052734375	205.6202545166017	215.4980621337892	1069.62841796875	190.5204010009766	88.29563903808597	47.82298660278322	241.5447387695314	212.5366668701173	1440.466186523438	374.3209533691407	
